<svg xmlns="http://www.w3.org/2000/svg" viewBox="0 0 189 189">
    <defs>
        <style>.cls-1{fill:#f0f0f0;}.cls-2{fill:#60605f;}.cls-3{fill:#65b32e;}</style>
    </defs>
    <title>Logo Quentin HAETTEL</title>
    <g>
        <g>
            <circle class="cls-1" cx="94.5" cy="94.5" r="94.5"/>
            <path class="cls-2" d="M113.89,131.43H95.36l1.25-3.18h20l.21,3A23.1,23.1,0,0,1,113.89,131.43Z"/>
            <path class="cls-2" d="M88.85,57.31c0-4.83-1.15-8.75-3.42-11.64a11.52,11.52,0,0,0-9.55-4.55c-6.5,0-12.41,4-17.56,11.84a62.17,62.17,0,0,0-7.16,15.91,58.28,58.28,0,0,0-2.89,16.78,19.94,19.94,0,0,0,3,11.25c2.11,3.16,4.87,4.76,8.2,4.76a14.21,14.21,0,0,0,2-.2l2.24-.32-3.52-5.83c-2.13-3.61-2.58-5.62-2.58-6.68a5.85,5.85,0,0,1,1.69-4.29,6.17,6.17,0,0,1,7.54-.77,17,17,0,0,1,3.4,4.62l4.06,7.18,1.39-1.7a59.07,59.07,0,0,0,9.67-17.18A56.1,56.1,0,0,0,88.85,57.31ZM74.72,90,72.84,86.7a19.83,19.83,0,0,0-4.15-5.48,9.13,9.13,0,0,0-11.55,1,8.79,8.79,0,0,0-2.54,6.38c0,2.11,1,4.8,3,8.22l1.06,1.77a6.82,6.82,0,0,1-4.92-3.38,17,17,0,0,1-2.48-9.59A55.72,55.72,0,0,1,54,69.75a60.12,60.12,0,0,1,6.8-15.15c4.57-7,9.63-10.48,15.06-10.48a8.57,8.57,0,0,1,7.19,3.4c1.84,2.35,2.78,5.64,2.78,9.79a53.19,53.19,0,0,1-3.32,18.16A56.71,56.71,0,0,1,74.72,90Z"/>
            <path class="cls-2" d="M147.18,113.43H143l9.7-23.86c1.29-3.19,1.91-5.52,1.91-7.13a7.44,7.44,0,0,0-2.53-5.7,8.64,8.64,0,0,0-6-2.25c-5.15,0-9,2.87-11.32,8.57l-12.33,30.37H105.88l9.83-24.23a20.48,20.48,0,0,0,1.84-7A7.19,7.19,0,0,0,115,76.7a8.86,8.86,0,0,0-6.09-2.21,10.76,10.76,0,0,0-6.59,2.07,67.53,67.53,0,0,0,3-19.56c0-9.17-2.53-16.7-7.51-22.38S86.06,26,77.86,26a35,35,0,0,0-16.49,4.42A48.92,48.92,0,0,0,46.75,42.53,64.93,64.93,0,0,0,36,62.56a69.89,69.89,0,0,0-4.2,23c0,9.63,2.38,17.35,7.08,23s11.32,8.6,19.53,8.6a33.84,33.84,0,0,0,9.86-1.49l5,8.56a15.15,15.15,0,0,0,5.23,5.56v0s0,.05.06.07h.06l0,.06c.12.3-.22.94-.43,1.33h0l0,0h0l-4.35,10.69h0a.43.43,0,0,1-.2.26l-2.19,5-1.27,3.09-.43,1.3-.49,1.92-.11,2.39.51,2,.92,1.55,1.15,1.27,1.44,1,1.63.72,1.66.39,1.84.07,1.43-.14,1.28-.26,1.63-.62,1.4-.81,1-.79,1-.9,1.7-2.17,1-2,.55-1.27h0l2.68-6.13,6.76-16.6h16.55l-5.3,12.94a18.68,18.68,0,0,0-1.54,7,10.53,10.53,0,0,0,4.11,8.71c2.62,2,6.14,3.08,10.48,3.08h12.71c3.92,0,7.06-.89,9.34-2.64a9.07,9.07,0,0,0,3.63-7.6c0-2.83-1.1-7.58-8.45-7.58H130.06l5.67-13.93h6.93c3.87,0,7-.89,9.28-2.64a9.09,9.09,0,0,0,3.63-7.6C155.57,116.12,152.59,113.43,147.18,113.43Zm2.94,12.8c-1.76,1.34-4.27,2-7.46,2h-8.95l-8.11,19.93h14.57c4.8,0,5.45,2.32,5.45,4.58a6.15,6.15,0,0,1-2.45,5.22c-1.75,1.34-4.28,2-7.52,2H122.94c-3.65,0-6.56-.82-8.63-2.44a7.56,7.56,0,0,1-3-6.35,15.56,15.56,0,0,1,1.32-5.88l7-17.08h-23L90,144.55l-2.45,5.74h0L85.9,154l-.72,1.48-1.42,1.83L83,158l-.7.56-1,.59-1.18.46-.9.2-1.17.11-1.22,0-1.12-.24-1.08-.46-1-.66-.73-.77-.61-1-.29-1.14,0-1.49.4-1.61.38-1.15.54-1.35,1.86-4.27h0v0c0-.1,0-.17.15-.24a5,5,0,0,1,.42-.79l6.68-16.41h-.21l-1.3-.55a11.42,11.42,0,0,1-5.23-5L69.62,112l-1.16.4a31.24,31.24,0,0,1-10.07,1.71c-7.38,0-13-2.46-17.23-7.52s-6.38-12.15-6.38-21a67,67,0,0,1,4-22,61.93,61.93,0,0,1,10.25-19.1A45.94,45.94,0,0,1,62.79,33.05,32,32,0,0,1,77.86,29c7.4,0,13.18,2.49,17.66,7.61s6.77,12,6.77,20.4a67.29,67.29,0,0,1-5.87,26.94c-3.88,8.92-9,16.08-15.06,21.28l-.94.79,3.46,6.24a9.14,9.14,0,0,0,2,2.54l1.57,1.32L99.84,85.76,100.5,84c1.83-4.39,4.59-6.52,8.42-6.52A5.84,5.84,0,0,1,113,78.94a4.2,4.2,0,0,1,1.54,3.31c0,.82-.28,2.5-1.62,5.83l-11.51,28.35h23L136.79,86l.73-1.83c1.88-4.51,4.67-6.7,8.55-6.7A5.61,5.61,0,0,1,150,79a4.5,4.5,0,0,1,1.55,3.48c0,.82-.29,2.54-1.69,6l-11.38,28h8.68c4.75,0,5.39,2.32,5.39,4.58A6.16,6.16,0,0,1,150.12,126.23ZM91.19,99.06l-4.74,11.65-2.22-4A52.11,52.11,0,0,0,91.19,99.06Z"/>
            <path class="cls-3" d="M94.5,189A94.5,94.5,0,1,1,189,94.5,94.6,94.6,0,0,1,94.5,189Zm0-186A91.5,91.5,0,1,0,186,94.5,91.61,91.61,0,0,0,94.5,3Z"/>
        </g>
    </g>
</svg>