<svg xmlns="http://www.w3.org/2000/svg" viewBox="0 0 128 128"><defs><style>.cls-1{fill:#fff;}.cls-2{fill:#60605f;}.cls-3{fill:#65b32e;}</style></defs><title>Fichier 10</title><g id="Calque_2" data-name="Calque 2"><g id="Calque_1-2" data-name="Calque 1"><circle class="cls-1" cx="64" cy="64" r="64"/><path class="cls-2" d="M77.13,89H64.59l.84-2.15H79l.14,2A14.2,14.2,0,0,1,77.13,89Z"/><path class="cls-2" d="M60.17,38.81a12.52,12.52,0,0,0-2.31-7.88,7.8,7.8,0,0,0-6.47-3.08c-4.4,0-8.41,2.7-11.9,8a42.83,42.83,0,0,0-4.85,10.78,39.81,39.81,0,0,0-2,11.37,13.53,13.53,0,0,0,2,7.62,6.49,6.49,0,0,0,5.55,3.22,10.31,10.31,0,0,0,1.37-.13l1.51-.22-2.38-4C39.31,62.11,39,60.74,39,60a4,4,0,0,1,1.14-2.9,4.17,4.17,0,0,1,5.11-.52,11.18,11.18,0,0,1,2.31,3.13l2.75,4.86.94-1.15A40.1,40.1,0,0,0,57.8,51.8,37.76,37.76,0,0,0,60.17,38.81ZM50.6,61l-1.27-2.25A13.11,13.11,0,0,0,46.52,55,5.6,5.6,0,0,0,43,53.93,5.71,5.71,0,0,0,38.7,55.7,6,6,0,0,0,37,60c0,1.44.66,3.25,2,5.57l.73,1.2A4.65,4.65,0,0,1,36.4,64.5,11.58,11.58,0,0,1,34.72,58a37.46,37.46,0,0,1,1.87-10.77A40.44,40.44,0,0,1,41.19,37c3.09-4.71,6.52-7.1,10.2-7.1a5.8,5.8,0,0,1,4.87,2.3,10.52,10.52,0,0,1,1.88,6.63,35.76,35.76,0,0,1-2.25,12.3A38.11,38.11,0,0,1,50.6,61Z"/><path class="cls-2" d="M99.68,76.82H96.82l6.57-16.16a14.35,14.35,0,0,0,1.29-4.83A5,5,0,0,0,103,52a5.85,5.85,0,0,0-4-1.52c-3.49,0-6.07,1.95-7.67,5.8L82.91,76.82H71.71l6.66-16.41a14,14,0,0,0,1.24-4.71,4.9,4.9,0,0,0-1.72-3.76,6,6,0,0,0-4.12-1.49,7.32,7.32,0,0,0-4.47,1.4,45.53,45.53,0,0,0,2-13.25c0-6.21-1.71-11.31-5.09-15.15A17.14,17.14,0,0,0,52.73,17.6a23.79,23.79,0,0,0-11.17,3,33.44,33.44,0,0,0-9.9,8.21,44.14,44.14,0,0,0-7.29,13.57,47.31,47.31,0,0,0-2.85,15.55c0,6.52,1.62,11.76,4.8,15.56S34,79.31,39.54,79.31a22.88,22.88,0,0,0,6.68-1l3.37,5.8a10.31,10.31,0,0,0,3.54,3.76v0s0,0,0,0h.05l0,0c.08.2-.15.63-.29.89h0v0h0l-3,7.24h0a.34.34,0,0,1-.13.18l-1.49,3.38-.86,2.09-.29.88-.33,1.3-.07,1.62.34,1.34.62,1,.78.86,1,.7,1.1.49,1.12.27,1.25,0,1-.09.86-.18,1.11-.42,1-.55.69-.53.65-.62,1.15-1.47.68-1.33.38-.86h0l1.82-4.16L66.8,88.89H78l-3.59,8.76a12.7,12.7,0,0,0-1,4.76,7.13,7.13,0,0,0,2.79,5.9,11.24,11.24,0,0,0,7.09,2.08h8.61a10.2,10.2,0,0,0,6.32-1.78,6.14,6.14,0,0,0,2.46-5.15c0-1.92-.74-5.14-5.72-5.14H88.08l3.84-9.43h4.7a10.12,10.12,0,0,0,6.28-1.79A6.16,6.16,0,0,0,105.36,82C105.36,78.64,103.34,76.82,99.68,76.82Zm2,8.67a8.2,8.2,0,0,1-5,1.37H90.56l-5.5,13.49h9.87c3.25,0,3.69,1.57,3.69,3.11A4.15,4.15,0,0,1,97,107a8.24,8.24,0,0,1-5.09,1.37H83.26a9.34,9.34,0,0,1-5.84-1.65,5.12,5.12,0,0,1-2-4.3,10.69,10.69,0,0,1,.89-4L81,86.86H65.43L61,97.9l-1.66,3.89h0l-1.08,2.51-.49,1-1,1.24-.49.47-.47.38-.68.4-.8.31-.61.13-.79.08-.83,0-.76-.17-.73-.31-.65-.45-.49-.51-.41-.71-.2-.77,0-1,.27-1.09.26-.78.36-.91L51,98.68h0c0-.07,0-.11.1-.16a3.5,3.5,0,0,1,.29-.54l4.52-11.11h-.14l-.88-.38a7.72,7.72,0,0,1-3.54-3.4l-4.2-7.23-.79.27a21.27,21.27,0,0,1-6.82,1.15c-5,0-8.81-1.66-11.66-5.09S23.55,64,23.55,57.92A45.19,45.19,0,0,1,26.29,43a42,42,0,0,1,6.94-12.95,31.18,31.18,0,0,1,9.29-7.7,21.65,21.65,0,0,1,10.21-2.76,15,15,0,0,1,12,5.16c3,3.46,4.59,8.11,4.59,13.81a45.59,45.59,0,0,1-4,18.25A39.05,39.05,0,0,1,55.1,71.26l-.63.54L56.8,76a6.27,6.27,0,0,0,1.39,1.72l1.06.9,8.37-20.56.45-1.19c1.24-3,3.1-4.41,5.7-4.41a4,4,0,0,1,2.76,1,2.83,2.83,0,0,1,1,2.24,11.85,11.85,0,0,1-1.1,3.95l-7.79,19.2H84.28l8.36-20.59.5-1.25c1.27-3,3.16-4.53,5.79-4.53a3.84,3.84,0,0,1,2.67,1,3,3,0,0,1,1.05,2.36,12.46,12.46,0,0,1-1.14,4.07L93.8,78.85h5.88c3.21,0,3.65,1.57,3.65,3.1A4.2,4.2,0,0,1,101.67,85.49ZM61.76,67.09,58.55,75,57,72.26A35.51,35.51,0,0,0,61.76,67.09Z"/><path class="cls-3" d="M64,128a64,64,0,1,1,64-64A64.07,64.07,0,0,1,64,128ZM64,2a62,62,0,1,0,62,62A62,62,0,0,0,64,2Z"/></g></g></svg>