<svg viewBox="0 0 512 512" xmlns="http://www.w3.org/2000/svg">
	<style type="text/css">
		path{fill:#65B32E;}
	</style>
	<path d="M437,75C388.7,26.6,324.4,0,256,0S123.3,26.6,75,75C26.6,123.3,0,187.6,0,256s26.6,132.7,75,181 c48.4,48.3,112.6,75,181,75s132.7-26.6,181-75c48.3-48.4,75-112.6,75-181S485.4,123.3,437,75z M256,472c-119.1,0-216-96.9-216-216 S136.9,40,256,40s216,96.9,216,216S375.1,472,256,472z"/>
	<path d="M381.9,220.9L271.7,331.1c-0.5,0.7-1.2,1.4-1.8,2.1c-3.9,3.9-9,5.8-14.1,5.8c-5.2,0-10.3-2-14.2-5.9 L130,220.6c-7.8-7.9-7.7-20.5,0.1-28.3c7.8-7.8,20.5-7.7,28.3,0.1l97.2,98.1l97.9-97.9c7.8-7.8,20.5-7.8,28.3,0 S389.7,213.1,381.9,220.9z"/>
</svg>
