<svg viewBox="0 0 365 365" xmlns="http://www.w3.org/2000/svg">
	<style type="text/css">
		.st0{fill:#F44336;}
	</style>
	<path class="st0" d="M355.6,296.1c12.5,12.5,12.5,32.7,0,45.2l-15,15.1c-12.5,12.5-32.7,12.5-45.2,0L182.5,243.4L69.6,356.3 c-12.5,12.5-32.7,12.5-45.2,0l-15-15.1c-12.5-12.5-12.5-32.7,0-45.2l112.9-112.9L9.4,70.3c-12.5-12.5-12.5-32.7,0-45.2l15.1-15.1 c12.5-12.5,32.7-12.5,45.2,0L182.5,123L295.4,10.1c12.5-12.5,32.7-12.5,45.2,0l15,15.1c12.5,12.5,12.5,32.7,0,45.2L242.7,183.2 L355.6,296.1z"/>
</svg>
