<svg viewBox="0 0 512 512" xmlns="http://www.w3.org/2000/svg">
	<style type="text/css">
		.st0{fill:#FFFFFF;}
		.st1{fill:#65B32E;}
	</style>
	<path class="st0" d="M256,0C114.6,0,0,114.6,0,256s114.6,256,256,256s256-114.6,256-256S397.4,0,256,0z M150.4,173.8H150c-20.9,0-34.5-14.4-34.5-32.4c0-18.4,13.9-32.4,35.3-32.4c21.3,0,34.5,14,34.9,32.4C185.7,159.4,172.2,173.8,150.4,173.8zM181.6,199.4V387h-62.3V199.4H181.6z M406.4,387h-62.3V286.7c0-25.2-9-42.4-31.6-42.4c-17.2,0-27.5,11.6-32,22.8c-1.7,4-2,9.6-2,15.2V387h-62.4c0,0,0.8-170,0-187.6h62.4V226c8.3-12.8,23.1-31,56.2-31c41,0,71.8,26.8,71.8,84.4V387z"/>
	<path class="st1" d="M185.7,141.4c0,18-13.5,32.4-35.3,32.4H150c-20.9,0-34.5-14.4-34.5-32.4c0-18.4,13.9-32.4,35.3-32.4C172.2,109,185.3,123,185.7,141.4z"/>
	<rect x="119.3" y="199.4" class="st1" width="62.3" height="187.6"/>
	<path class="st1" d="M406.4,279.5V387h-62.3V286.7c0-25.2-9-42.4-31.6-42.4c-17.2,0-27.5,11.6-32,22.8c-1.7,4-2,9.6-2,15.2V387 h-62.4c0,0,0.8-170,0-187.6h62.4V226c8.3-12.8,23.1-31,56.2-31C375.7,195,406.4,221.8,406.4,279.5z"/>
</svg>
